<svg width="24" height="24" viewBox="0 0 24 24" fill="none" xmlns="http://www.w3.org/2000/svg">
<path d="M16.0179 7.53272C15.7048 7.22544 15.2797 7.05731 14.8348 7.06477L9.69903 7.12927C9.47564 7.133 9.26038 7.22497 9.10026 7.38509C8.94014 7.54521 8.84817 7.76047 8.84444 7.98386C8.84245 8.09549 8.86258 8.2058 8.90367 8.30842C8.94476 8.41105 9.00599 8.50397 9.08383 8.58181C9.16168 8.65966 9.25459 8.72089 9.35722 8.76198C9.45985 8.80307 9.57016 8.8232 9.68179 8.82121L13.61 8.76132L7.54906 14.8222C7.38832 14.983 7.29628 15.1993 7.29321 15.4235C7.29013 15.6478 7.37626 15.8616 7.53265 16.018C7.68905 16.1744 7.90289 16.2605 8.12714 16.2575C8.35139 16.2544 8.56768 16.1623 8.72843 16.0016L14.7893 9.94068L14.7353 13.8748C14.7315 14.0992 14.8169 14.3134 14.9728 14.4705C15.1287 14.6275 15.3424 14.7145 15.5667 14.7122C15.7911 14.7099 16.0078 14.6186 16.1692 14.4583C16.3306 14.298 16.4234 14.0819 16.4273 13.8575L16.4918 8.72177C16.4993 8.27397 16.3289 7.84636 16.0179 7.53272Z" fill="#222222"/>
<rect x="0.5" y="0.5" width="23" height="23" rx="11.5" stroke="#222222"/>
</svg>
