<svg width="2194" height="650" viewBox="0 0 2194 650" fill="none" xmlns="http://www.w3.org/2000/svg">
<rect y="0.587891" width="2194" height="648.824" fill="#FFDC60"/>
<g opacity="0.3">
<path d="M171.558 0.587891C172.374 3.85834 173.355 7.12342 174.496 10.377C187.807 48.3355 223.064 84.9789 275.149 109.952C379.197 159.84 549.933 162.825 742.882 36.3969C761.278 24.3433 779.745 12.3871 798.228 0.587891H808.449C787.618 13.8374 766.788 27.3019 746.039 40.8972C551.757 168.199 378.86 165.747 272.649 114.823C219.606 89.3901 183.077 51.7836 169.168 12.1222C167.824 8.29101 166.693 4.44304 165.779 0.587891H171.558Z" fill="#FAF8ED"/>
<path d="M209.085 649.412C203.667 621.263 194.065 591.866 180.602 561.682C145.043 481.963 82.6721 397.045 0 315.67V307.928C85.0569 390.879 149.309 477.791 185.768 559.53C199.516 590.352 209.331 620.48 214.805 649.412H209.085Z" fill="#FAF8ED"/>
<path d="M943.542 649.412C925.138 509.809 850.199 402.666 747.075 333.463C627.733 253.377 470.541 224.046 319.356 254.262C281.507 261.826 256.829 271.625 242.687 283.319C235.665 289.127 231.299 295.352 229.145 301.972C226.99 308.594 226.983 315.813 229.015 323.706C233.109 339.609 245.395 357.924 264.237 378.654C283.025 399.325 308.07 422.121 337.288 446.993C360.343 466.618 385.981 487.519 413.128 509.65C464.906 551.86 522.177 598.549 577.501 649.412H569.332C515.621 600.337 460.194 555.147 409.803 514.062C382.565 491.854 356.799 470.846 333.57 451.073C304.305 426.162 279.042 403.181 260.01 382.243C241.033 361.363 227.988 342.235 223.556 325.019C221.325 316.353 221.255 308.095 223.779 300.341C226.303 292.584 231.355 285.535 239.03 279.188C254.283 266.575 280.119 256.551 318.217 248.937C470.816 218.439 629.597 248.009 750.283 328.997C854.863 399.176 930.76 507.922 949.213 649.412H943.542Z" fill="#FAF8ED"/>
<path d="M1823.57 649.412C1830.78 644.728 1838.39 639.837 1846.37 634.709C1853.9 629.868 1861.77 624.816 1869.92 619.529C1910.56 593.199 1958.79 560.914 2011.26 519.534C2063.5 478.337 2088.39 437.926 2094.6 402.156C2100.79 366.453 2088.45 334.979 2065.35 311.348C2019.01 263.921 1929.55 248.287 1860.88 294.606C1790.22 342.278 1673.05 355.776 1583.1 308.7C1579.54 306.839 1576.03 304.885 1572.57 302.834C1524.55 439.127 1441.6 559.007 1351.76 649.412H1343.94C1435.09 558.72 1519.38 437.641 1567.67 299.852C1529.38 275.853 1497.3 239.709 1477.83 189.214C1458.99 140.33 1452 78.1114 1462.49 0.587891H1468.16C1457.63 77.77 1464.59 139.295 1483.1 187.316C1501.93 236.154 1532.75 271.145 1569.52 294.524C1601.04 202.526 1616.45 103.202 1607.15 0.587891H1612.8C1622.14 104.338 1606.41 204.688 1574.41 297.545C1578.14 299.784 1581.94 301.908 1585.78 303.919C1673.74 349.953 1788.63 336.719 1857.66 290.148C1928.7 242.225 2021.26 258.307 2069.44 307.615C2093.62 332.35 2106.66 365.499 2100.14 403.055C2093.64 440.543 2067.72 482.028 2014.82 523.747C1962.15 565.282 1913.75 597.676 1873.06 624.045C1864.82 629.384 1856.9 634.47 1849.34 639.331C1843.94 642.803 1838.71 646.16 1833.68 649.412H1823.57Z" fill="#FAF8ED"/>
<path d="M1847.86 0.587891C1874.97 14.0838 1898.08 22.1267 1918.16 27.049C1944.62 33.5362 1965.76 34.6194 1984.25 35.5665L1984.25 35.5666C1990.7 35.8972 1996.83 36.2112 2002.75 36.7325C2014.14 37.7355 2024.71 39.5208 2035 43.801C2045.32 48.0916 2055.2 54.8256 2065.34 65.5415C2085.51 86.8674 2106.82 124.136 2134.72 189.853C2154.22 235.78 2174.46 273.639 2194 305.739V316.355C2172.85 282.385 2150.71 241.836 2129.52 191.917C2101.63 126.239 2080.63 89.7665 2061.19 69.2099C2051.52 58.9846 2042.27 52.7418 2032.78 48.7953C2023.26 44.8385 2013.36 43.1264 2002.24 42.1471C1996.61 41.6517 1990.67 41.3475 1984.34 41.0235C1965.75 40.0726 1943.82 38.9503 1916.77 32.3192C1893.93 26.7185 1867.4 17.1992 1835.85 0.587891H1847.86Z" fill="#FAF8ED"/>
</g>
</svg>
