<svg width="85" height="24" viewBox="0 0 85 24" fill="none" xmlns="http://www.w3.org/2000/svg">
<path d="M27.5789 4.5888V1.68408H42.1932V4.5888H36.5521V21.7824H33.2784V4.5888H27.5789Z" fill="black"/>
<path d="M51.145 19.1425L51.9636 19.0545L52.0219 21.4311C49.8006 21.881 47.8324 22.1058 46.1177 22.1058C43.9547 22.1058 42.396 21.5092 41.4412 20.3161C40.5059 19.1229 40.0381 17.2157 40.0381 14.5947C40.0381 9.39158 42.1524 6.79004 46.3808 6.79004C50.4728 6.79004 52.5189 9.0297 52.5189 13.509L52.3143 15.7976H43.2532C43.2728 17.0103 43.5358 17.9004 44.0425 18.4675C44.549 19.0349 45.4943 19.3185 46.8777 19.3185C48.2612 19.3185 49.6836 19.2597 51.145 19.1425ZM49.3913 13.333C49.3913 11.8856 49.1575 10.8782 48.6899 10.3109C48.2417 9.7241 47.472 9.43069 46.3808 9.43069C45.2897 9.43069 44.4907 9.73387 43.984 10.3403C43.4968 10.9467 43.2436 11.9441 43.2242 13.333H49.3913Z" fill="black"/>
<path d="M54.1208 21.7831V7.1128H57.2775V8.87322C58.9337 7.79741 60.5901 7.10301 62.2463 6.79004V9.98817C60.5705 10.3207 59.1383 10.7511 57.9497 11.2791L57.3067 11.5433V21.7831H54.1208Z" fill="black"/>
<path d="M63.2205 21.7831V7.1128H66.3773V8.87322C68.0335 7.79741 69.6897 7.10301 71.3461 6.79004V9.98817C69.6704 10.3207 68.2381 10.7511 67.0495 11.2791L66.4064 11.5433V21.7831H63.2205Z" fill="black"/>
<path d="M83.1349 11.6313V18.321C83.1545 18.7513 83.2616 19.074 83.4566 19.2892C83.6709 19.4848 83.9924 19.6119 84.421 19.6705L84.3334 22.1058C82.6576 22.1058 81.3619 21.7439 80.4459 21.0201C78.8871 21.7439 77.3185 22.1058 75.7402 22.1058C72.8368 22.1058 71.385 20.5509 71.385 17.4408C71.385 15.954 71.7747 14.8783 72.5543 14.2132C73.353 13.5481 74.5709 13.1471 76.2077 13.0102L79.9783 12.6875V11.6313C79.9783 10.8488 79.8029 10.3011 79.4522 9.98817C79.1208 9.6752 78.624 9.51871 77.9614 9.51871C76.7145 9.51871 75.1555 9.59697 73.2848 9.75345L72.3496 9.81212L72.2326 7.5529C74.3566 7.04433 76.3052 6.79004 78.0785 6.79004C79.8711 6.79004 81.1572 7.18124 81.9366 7.96366C82.7355 8.72652 83.1349 9.94905 83.1349 11.6313ZM76.5877 15.2694C75.2433 15.3869 74.5709 16.1204 74.5709 17.47C74.5709 18.8197 75.1652 19.4945 76.3538 19.4945C77.3282 19.4945 78.361 19.338 79.4522 19.025L79.9783 18.849V14.9467L76.5877 15.2694Z" fill="black"/>
<path fill-rule="evenodd" clip-rule="evenodd" d="M18.7368 0C21.2802 0 23.4023 1.80411 23.893 4.20244C23.9631 4.54507 24 4.89981 24 5.26316V18.7368C24 21.6436 21.6435 24 18.7368 24H5.26316C4.68769 24 4.13381 23.9076 3.6155 23.7371C1.51575 23.0455 0 21.0682 0 18.7368V5.26316C0 2.3564 2.3564 0 5.26316 0H18.7368ZM16.6021 1.68421H18.7368C20.481 1.68421 21.9339 2.932 22.2513 4.58362C21.2385 4.69838 20.0806 4.59204 18.8579 4.06806C17.7745 3.60368 17.0557 2.74337 16.6021 1.68421ZM11.6048 1.68421H14.8037C15.3353 3.28411 16.3534 4.82707 18.1945 5.61608C19.6713 6.24901 21.0739 6.39583 22.3157 6.27251V7.99341C20.6296 8.52718 18.9494 8.7432 17.605 8.34971C16.9372 8.15425 16.1709 7.63533 15.3463 6.81899C14.533 6.01383 13.7214 4.97827 12.9551 3.84632C12.4789 3.14288 12.0254 2.41013 11.6048 1.68421ZM9.67059 1.68421H7.44194C7.54352 3.59004 7.09446 5.91794 5.42402 8.27621C4.31733 9.83861 3.00859 10.6979 1.68421 11.0817V14.4394C2.48223 13.9547 3.42171 13.2928 4.52164 12.3992C7.12057 10.2875 9.16756 9.44731 10.7197 9.29362C12.2629 9.14082 13.36 9.67613 13.8431 10.3527C14.3505 11.0629 14.6372 12.0147 14.7452 13.0185C14.8545 14.0345 14.788 15.1678 14.5315 16.2924C14.0223 18.5282 12.729 20.8554 10.3993 22.1099C10.2724 22.1783 10.1444 22.2469 10.0154 22.3158H12.6332C13.657 21.016 14.4764 19.7246 14.7703 18.7126C15.1019 17.5701 15.2381 16.3589 15.3652 15.2267L15.3654 15.2265V15.2261C15.4111 14.8196 15.4557 14.4229 15.5077 14.0434C15.5981 13.3857 15.7227 12.6888 15.9903 12.1863C16.132 11.9204 16.357 11.6244 16.7191 11.4535C17.1004 11.2735 17.4972 11.2956 17.8452 11.4116C18.8208 11.7368 20.1176 11.8042 22.3157 11.2535V9.75126C20.6206 10.2289 18.7724 10.4462 17.1317 9.9661C16.0732 9.65627 15.0684 8.91381 14.1614 8.01587C13.2431 7.10678 12.3627 5.97524 11.5606 4.79053C10.8745 3.77714 10.2358 2.70987 9.67059 1.68421ZM22.3157 12.9857C20.2216 13.4651 18.7157 13.4451 17.4421 13.0509C17.348 13.2714 17.2602 13.6621 17.1764 14.2724C17.1347 14.5756 17.0962 14.9202 17.0543 15.2928V15.2931C16.9242 16.4543 16.7635 17.8874 16.3875 19.1821C16.0995 20.1745 15.4764 21.2648 14.7357 22.3158H16.4301C16.7427 21.5385 17.0305 20.7983 17.2566 20.1762C17.4995 19.5076 17.6515 19.0267 17.7006 18.7821C17.7934 18.3175 17.9705 17.8175 18.3859 17.4632C18.8179 17.0943 19.3484 17.0152 19.8454 17.0404C20.3349 17.0655 20.9088 17.1973 21.5562 17.3829C21.7915 17.4503 22.0446 17.5274 22.3157 17.6131V12.9857ZM22.261 19.364C21.8214 19.2213 21.4345 19.1002 21.0917 19.0019C20.4663 18.8223 20.0467 18.7371 19.76 18.7225C19.5747 18.7131 19.4997 18.736 19.4783 18.7455C19.4661 18.7598 19.4063 18.8413 19.3522 19.1124C19.2747 19.4994 19.0787 20.0931 18.8395 20.7514C18.668 21.2238 18.464 21.7564 18.2431 22.3158H18.7368C20.4995 22.3158 21.9646 21.0415 22.261 19.364ZM6.38141 22.3158C7.48436 21.7469 8.5976 21.1672 9.6008 20.6269C11.3764 19.6709 12.4515 17.8404 12.8894 15.9183C13.1069 14.964 13.1587 14.0181 13.0707 13.1987C12.9812 12.3669 12.7549 11.7267 12.4726 11.3316C12.4296 11.2714 12.0004 10.8594 10.8856 10.9697C9.77989 11.0792 8.03741 11.7126 5.58371 13.7063C4.04773 14.9543 2.76234 15.8093 1.68421 16.3745V18.2739C1.94998 18.0307 2.25008 17.8276 2.52743 17.6543C2.80998 17.4777 3.11785 17.304 3.42042 17.1343L3.49541 17.0922C3.77804 16.9339 4.05857 16.7766 4.33714 16.6099C4.9465 16.2448 5.49444 15.8636 5.91577 15.42C6.64524 14.652 7.69815 13.7356 8.68802 13.1099C9.17636 12.8011 9.70375 12.528 10.2013 12.4027C10.6684 12.2851 11.3924 12.2373 11.897 12.8141C12.3772 13.3629 12.5762 14.1861 12.2265 15.2545C11.8943 16.2695 11.06 17.5507 9.44726 19.2173C7.77331 20.9469 6.09928 21.8135 4.68796 22.0897C4.52878 22.1208 4.37219 22.1444 4.21876 22.1611C4.54916 22.2617 4.89983 22.3158 5.26316 22.3158H6.38141ZM1.68421 9.29975C2.50019 8.96133 3.31312 8.34255 4.04966 7.30269C5.50402 5.24949 5.85547 3.25855 5.75539 1.68421H5.26316C3.28655 1.68421 1.68421 3.28657 1.68421 5.26316V9.29975ZM19.4766 18.7463C19.4726 18.7482 19.4709 18.7495 19.4711 18.7495C19.4713 18.7497 19.4722 18.7493 19.4736 18.7482L19.4747 18.7476L19.4766 18.7463ZM9.58789 14.5335C8.73979 15.0695 7.79257 15.8897 7.13689 16.58C6.55834 17.1891 5.85632 17.6632 5.20253 18.0547C4.90208 18.2345 4.6008 18.4034 4.32156 18.56L4.24421 18.6034C3.93819 18.7749 3.66381 18.9301 3.42002 19.0825C2.89434 19.4109 2.67459 19.632 2.60571 19.7733C2.58596 19.8139 2.5836 19.8371 2.58971 19.8724C2.59836 19.9229 2.63461 20.0394 2.77884 20.2316L2.79286 20.2503L2.80583 20.2697C2.80663 20.2707 2.8256 20.2971 2.88587 20.3339C2.94813 20.372 3.04448 20.4149 3.18135 20.4486C3.4564 20.5164 3.85678 20.536 4.36459 20.4366C5.37436 20.2392 6.75303 19.5794 8.23699 18.0459C9.78225 16.4493 10.4107 15.3874 10.6259 14.7307C10.7539 14.3396 10.7275 14.1278 10.6867 14.0196C10.6661 14.0234 10.6416 14.0286 10.6128 14.036C10.3696 14.0973 10.0185 14.2613 9.58789 14.5335ZM10.7772 14.0116C10.7768 14.0122 10.7717 14.0122 10.7633 14.0105C10.7732 14.0103 10.7776 14.0112 10.7772 14.0116Z" fill="#56704E"/>
</svg>
