<svg width="280" height="55" viewBox="0 0 280 55" fill="none" xmlns="http://www.w3.org/2000/svg">
<g clip-path="url(#clip0_616_5158)">
<path d="M16.4281 42.1673C14.0736 42.1486 11.8148 41.2339 10.113 39.6099C9.21736 38.7767 8.55039 37.7286 8.17575 36.5653C7.85489 35.6349 7.65002 34.6686 7.56565 33.6882C7.44362 32.5313 7.35212 31.3134 7.30636 30.0043C7.2606 28.6951 7.30636 25.5136 7.30636 24.2653C6.14109 24.2385 4.97901 24.1317 3.82844 23.9456C2.85788 23.8135 1.93255 23.4535 1.12847 22.8952C0.778685 22.6371 0.499238 22.2957 0.315409 21.9022C0.131581 21.5087 0.0492056 21.0756 0.0759501 20.6423C0.0395238 20.1453 0.107633 19.6461 0.275748 19.1769C0.443862 18.7077 0.708294 18.2786 1.05222 17.9174C1.79936 17.2715 2.71418 16.8493 3.6912 16.6996C4.88557 16.4912 6.09413 16.3741 7.30636 16.3494C7.30636 15.3904 7.42837 6.75905 7.56565 5.69345C7.69204 4.7281 7.93795 3.78212 8.29781 2.87722C8.59999 2.06796 9.0916 1.34251 9.73167 0.761277C10.4089 0.194655 11.2741 -0.0985925 12.1571 -0.0607676C12.7117 -0.106544 13.269 -0.0151821 13.7799 0.205195C14.2907 0.425572 14.7392 0.768151 15.0858 1.2027C15.729 2.17859 16.1219 3.29734 16.2298 4.46041C16.3824 5.80001 16.4434 14.8576 16.4129 16.3037C17.8446 16.2616 19.2775 16.3278 20.6992 16.5017C21.7525 16.5816 22.7669 16.933 23.6432 17.5216C24.0125 17.822 24.3028 18.2078 24.4888 18.6455C24.6749 19.0832 24.7511 19.5596 24.711 20.0334C24.7475 20.5401 24.6564 21.048 24.4459 21.5106C24.2354 21.9733 23.9123 22.376 23.506 22.6821C22.5609 23.3295 21.4718 23.7371 20.3331 23.8695C18.96 24.0825 17.5735 24.1995 16.184 24.2196C16.184 24.8133 16.184 25.4222 16.184 26.0616C16.184 26.7009 16.184 29.2584 16.184 29.9129C16.1289 31.1822 16.2522 32.453 16.5502 33.6882C16.6007 33.9072 16.6941 34.1141 16.8249 34.297C16.9558 34.4799 17.1217 34.6351 17.3129 34.7538C17.7084 34.9222 18.1337 35.0102 18.5637 35.0126C19.1787 35.0427 19.7878 35.1449 20.3788 35.317C20.7208 35.3857 21.0456 35.5221 21.3338 35.7182C21.622 35.9143 21.8678 36.1661 22.0568 36.4587C22.4836 37.1478 22.6958 37.9478 22.6669 38.7574C22.6627 39.2859 22.5028 39.8015 22.2072 40.24C21.9116 40.6784 21.4933 41.0205 21.0043 41.2235C19.5825 41.9164 18.0087 42.2409 16.4281 42.1673Z" fill="#1A1A1A"/>
<path d="M34.3064 42.1671C32.1914 42.2098 30.0977 41.7397 28.2049 40.797C26.5093 39.9419 25.084 38.6353 24.0864 37.0218C23.0712 35.3635 22.5427 33.4543 22.561 31.5111C22.5629 29.5467 23.0894 27.6182 24.0864 25.9244C25.0594 24.2307 26.4578 22.8194 28.1439 21.8294C29.9544 20.7855 32.0177 20.2588 34.1081 20.3071C35.971 20.2539 37.8158 20.684 39.4622 21.5554C40.8653 22.3051 42.0483 23.4069 42.8943 24.7522C43.6682 25.9674 44.0808 27.3768 44.0842 28.8167C44.1399 30.0624 43.7981 31.2936 43.1079 32.3331C42.4596 33.2456 41.5807 33.9705 40.5606 34.4339C39.5044 34.9266 38.377 35.2503 37.22 35.3929C36.0902 35.5293 34.9481 35.5293 33.8184 35.3929C32.8867 35.3139 31.9661 35.1352 31.0726 34.8601C31.5489 35.6968 32.2968 36.3465 33.1929 36.7021C34.0531 37.0302 34.9738 37.1704 35.8929 37.1131C36.7631 37.0788 37.6297 36.9822 38.486 36.8239C39.27 36.583 40.1146 36.6317 40.8656 36.9609C41.1608 37.0901 41.4109 37.3036 41.5847 37.5745C41.7584 37.8454 41.8479 38.1616 41.8418 38.4832C41.8574 39.0929 41.6515 39.6876 41.2622 40.1577C40.6671 40.8428 39.8813 41.3356 39.0046 41.5734C37.4822 42.029 35.8946 42.2296 34.3064 42.1671ZM31.1794 29.2277C31.4884 29.7314 31.9712 30.1049 32.537 30.2781C33.1095 30.477 33.7183 30.5497 34.3217 30.4912C34.8633 30.438 35.3852 30.2609 35.8471 29.9736C36.0483 29.8524 36.2137 29.6799 36.3263 29.474C36.4388 29.268 36.4946 29.0359 36.4878 28.8014C36.4831 28.5344 36.4239 28.2711 36.3137 28.0277C36.2035 27.7842 36.0447 27.5658 35.8471 27.3857C35.2944 26.9248 34.5817 26.7005 33.8641 26.7616C33.4918 26.7389 33.1191 26.7996 32.7734 26.9392C32.4276 27.0788 32.1176 27.2938 31.8658 27.5684C31.4378 28.0229 31.1933 28.6193 31.1794 29.2429V29.2277Z" fill="#1A1A1A"/>
<path d="M56.881 42.1214C54.9183 42.0784 52.996 41.5557 51.2828 40.5991C49.5583 39.6689 48.1032 38.3111 47.0575 36.6564C45.9823 34.9592 45.4257 32.9861 45.4558 30.9784C45.3941 28.9284 45.9523 26.9074 47.0575 25.1784C48.1129 23.6071 49.5651 22.3416 51.2675 21.5098C52.9682 20.6638 54.8434 20.2259 56.7437 20.231C58.554 20.1896 60.348 20.581 61.9757 21.3727C63.3629 22.0395 64.5592 23.0448 65.4537 24.2955C66.236 25.3729 66.6674 26.6643 66.6892 27.9946C66.7142 28.4548 66.6415 28.9151 66.4759 29.3454C66.3103 29.7756 66.0555 30.1661 65.7282 30.4912C64.8689 31.1797 63.7747 31.5073 62.6775 31.4046C62.0755 31.4414 61.4774 31.2868 60.969 30.9631C60.5985 30.675 60.2699 30.3369 59.9928 29.9584C59.7276 29.5847 59.4148 29.2469 59.0623 28.9537C58.6164 28.643 58.0802 28.4879 57.5369 28.5122C56.7483 28.5073 55.9884 28.8074 55.4166 29.3495C54.8358 29.9533 54.5115 30.7579 54.5115 31.5949C54.5115 32.4319 54.8358 33.2364 55.4166 33.8402C55.909 34.2636 56.5126 34.5373 57.1559 34.6291C57.7993 34.7208 58.4556 34.6266 59.047 34.3578C59.3837 34.1625 59.6916 33.9218 59.9622 33.6423C60.2462 33.3348 60.5884 33.0865 60.969 32.9116C61.5291 32.681 62.1333 32.577 62.7384 32.6072C63.2965 32.5538 63.8594 32.6245 64.3869 32.814C64.9144 33.0035 65.3933 33.3071 65.7892 33.7032C66.3857 34.329 66.7282 35.1536 66.7502 36.0171C66.7196 37.1084 66.2848 38.1497 65.5299 38.9398C64.5997 39.963 63.4315 40.742 62.1283 41.208C60.4516 41.8362 58.6719 42.146 56.881 42.1214Z" fill="#1A1A1A"/>
<path d="M73.6909 42.167C72.9911 42.204 72.2941 42.0559 71.67 41.7378C71.0459 41.4198 70.5171 40.9429 70.1368 40.3555C69.1615 38.6191 68.6028 36.6808 68.5046 34.6926C68.197 31.3884 68.0595 28.0705 68.0927 24.7522C68.0927 21.7076 68.0927 19.0589 68.3368 16.7907C68.4036 14.9396 68.8776 13.1258 69.7249 11.4779C70.0862 10.8596 70.613 10.3541 71.2462 10.018C71.8794 9.68186 72.5939 9.52846 73.3095 9.57501C73.8395 9.53622 74.3717 9.60978 74.8712 9.7908C75.3707 9.97183 75.8263 10.2562 76.2078 10.6254C76.8991 11.3963 77.359 12.3459 77.5349 13.3655C77.7763 14.5947 77.909 15.8427 77.9315 17.0951C77.9315 18.4499 77.9315 19.7896 77.9315 21.1292C78.424 20.8884 78.9339 20.6848 79.4569 20.5202C80.2102 20.3371 80.9855 20.2602 81.7602 20.2919C83.7389 20.2212 85.687 20.7927 87.3126 21.9207C88.821 23.0246 89.9975 24.5198 90.7142 26.244C91.5126 28.1314 91.9124 30.1628 91.8887 32.2114C91.8887 33.3226 91.8888 34.4643 91.7515 35.606C91.661 36.68 91.4564 37.7415 91.1413 38.7724C90.8729 39.651 90.4088 40.4577 89.7837 41.1319C89.469 41.4351 89.0958 41.6712 88.6867 41.8256C88.2775 41.98 87.8411 42.0496 87.4041 42.03C86.3893 42.1121 85.381 41.8075 84.5822 41.1776C83.9265 40.5062 83.5225 39.63 83.4381 38.6962C83.2744 37.4548 83.1979 36.2035 83.2093 34.9515C83.2428 33.5672 83.0627 32.1861 82.6754 30.8565C82.5701 30.4038 82.3164 29.9992 81.9543 29.7069C81.5923 29.4145 81.1428 29.2512 80.6772 29.2429C80.1914 29.2355 79.7173 29.3925 79.3323 29.6882C78.9473 29.984 78.674 30.4012 78.5569 30.8718C78.1345 32.1955 77.9235 33.5774 77.9315 34.9667C77.9411 36.2298 77.8544 37.4919 77.6722 38.7419C77.5656 39.6876 77.1656 40.5764 76.5282 41.2841C76.1385 41.6133 75.6866 41.8611 75.1992 42.0128C74.7119 42.1644 74.1989 42.2169 73.6909 42.167Z" fill="#1A1A1A"/>
<path d="M100.659 49.0325C99.6895 49.0387 98.7236 48.9054 97.7917 48.6367C96.9708 48.4109 96.2204 47.9815 95.6104 47.3885C95.3285 47.093 95.109 46.744 94.9649 46.3622C94.8208 45.9804 94.755 45.5736 94.7715 45.1659C94.7639 44.6525 94.9035 44.1477 95.1737 43.7108C95.4439 43.2739 95.8336 42.9231 96.2969 42.6998C97.3207 42.1353 98.4856 41.8764 99.6528 41.9539C100.725 42.0119 101.801 41.9403 102.856 41.7408C103.536 41.6188 104.155 41.2699 104.61 40.7513C102.256 40.8491 99.9102 40.4173 97.746 39.4878C96.0741 38.678 94.756 37.2868 94.0393 35.5756C92.7985 32.0243 92.561 28.2008 93.3529 24.5238C93.5966 23.397 94.1212 22.3498 94.8783 21.4792C95.2308 21.0999 95.6616 20.8014 96.1409 20.6043C96.6201 20.4072 97.1366 20.3162 97.6545 20.3375C98.2724 20.275 98.8963 20.3628 99.4728 20.5935C100.049 20.8241 100.561 21.1907 100.965 21.6619C101.611 22.5446 101.954 23.6129 101.941 24.7065C101.941 25.7721 101.941 26.7869 101.941 27.751C101.906 28.6451 101.937 29.5406 102.032 30.4303C102.098 31.1081 102.357 31.7528 102.78 32.2874C103.029 32.5377 103.331 32.7302 103.663 32.8512C103.995 32.9722 104.35 33.0188 104.702 32.9877C105.052 33.0197 105.405 32.9735 105.734 32.8524C106.064 32.7313 106.363 32.5383 106.609 32.2874C107.043 31.7599 107.304 31.1113 107.356 30.4303C107.451 29.5558 107.482 28.6756 107.447 27.7967C107.447 26.7818 107.447 25.767 107.447 24.7521C107.403 23.5931 107.759 22.454 108.454 21.5249C108.865 21.0701 109.378 20.7176 109.95 20.4956C110.522 20.2735 111.138 20.1881 111.749 20.2462C112.274 20.2233 112.798 20.3133 113.285 20.5103C113.772 20.7073 114.21 21.0067 114.571 21.3879C115.334 22.2543 115.86 23.3032 116.096 24.4325C116.42 25.7939 116.579 27.1892 116.569 28.5883C116.574 31.1026 116.297 33.6095 115.746 36.0627C115.246 38.3812 114.348 40.5959 113.091 42.6085C111.868 44.5 110.204 46.0671 108.241 47.1753C105.924 48.4563 103.307 49.0974 100.659 49.0325Z" fill="#1A1A1A"/>
<path d="M227.283 42.1976C226.791 42.2493 226.293 42.1806 225.834 41.9976C225.374 41.8147 224.966 41.5228 224.644 41.1472C224.097 40.3669 223.78 39.4493 223.729 38.4984C223.638 37.4227 223.592 36.3419 223.592 35.256C223.648 33.8966 223.408 32.5413 222.89 31.2828C222.676 30.8275 222.336 30.4425 221.911 30.1728C221.485 29.9032 220.992 29.7599 220.488 29.7599C219.984 29.7599 219.49 29.9032 219.064 30.1728C218.639 30.4425 218.299 30.8275 218.085 31.2828C217.542 32.5349 217.286 33.8925 217.338 35.256C217.338 36.3368 217.338 37.4176 217.231 38.468C217.187 39.4086 216.887 40.3193 216.361 41.1016C216.028 41.4398 215.63 41.7085 215.191 41.8919C214.753 42.0753 214.282 42.1697 213.806 42.1697C213.331 42.1697 212.86 42.0753 212.421 41.8919C211.983 41.7085 211.585 41.4398 211.251 41.1016C210.536 40.3014 210.014 39.3484 209.726 38.3158C209.361 37.0993 209.116 35.8502 208.994 34.5862C208.868 33.3165 208.807 32.0412 208.811 30.7653C208.811 29.5322 208.811 28.2535 208.994 26.9443C209.105 25.7185 209.329 24.5056 209.665 23.3213C209.933 22.325 210.417 21.3998 211.084 20.6116C211.391 20.2783 211.767 20.0148 212.185 19.8389C212.604 19.6629 213.055 19.5786 213.509 19.5917C214.266 19.5081 215.027 19.7101 215.642 20.158C216.258 20.6059 216.683 21.2673 216.834 22.0121C217.349 21.5189 217.955 21.131 218.619 20.8704C219.519 20.5031 220.484 20.3218 221.456 20.3376C223.564 20.2478 225.639 20.8877 227.329 22.1491C228.912 23.4542 230.074 25.1963 230.67 27.1575C231.403 29.5477 231.738 32.0419 231.661 34.5405C231.678 35.8504 231.545 37.1579 231.264 38.4376C231.07 39.4677 230.607 40.4285 229.922 41.2233C229.575 41.561 229.161 41.8222 228.706 41.99C228.252 42.1579 227.767 42.2286 227.283 42.1976Z" fill="#1A1A1A"/>
<path d="M244.214 42.1975C242.113 42.2505 240.044 41.6839 238.265 40.5687C236.637 39.5134 235.316 38.0484 234.436 36.3215C233.565 34.6419 233.11 32.7783 233.109 30.8869C233.032 28.7928 233.562 26.721 234.634 24.9196C235.536 23.4355 236.836 22.2331 238.387 21.4488C239.861 20.6998 241.492 20.3086 243.146 20.3071C243.946 20.3121 244.743 20.3988 245.526 20.5659C246.33 20.7316 247.102 21.0245 247.814 21.4336C247.691 20.0923 247.414 18.7694 246.99 17.4909C246.579 16.2218 246.368 14.897 246.365 13.5634C246.314 12.9917 246.403 12.4163 246.623 11.8862C246.844 11.3561 247.189 10.887 247.631 10.5189C248.391 9.89072 249.344 9.54146 250.33 9.52934C251.398 9.51249 252.434 9.89851 253.229 10.6102C254.097 11.4114 254.802 12.3729 255.303 13.4416C255.906 14.7166 256.367 16.0542 256.676 17.43C257.022 18.935 257.271 20.4603 257.424 21.9968C257.576 23.5495 257.652 25.0414 257.652 26.4723C257.652 26.9442 257.652 27.6445 257.652 28.6187C257.587 29.6991 257.439 30.773 257.21 31.8308C256.934 33.0598 256.535 34.2581 256.02 35.4081C255.452 36.6496 254.678 37.7868 253.732 38.7724C252.658 39.8462 251.376 40.6905 249.964 41.2537C248.131 41.9513 246.175 42.2723 244.214 42.1975ZM244.504 34.8449C244.914 34.8475 245.321 34.7635 245.697 34.5982C246.073 34.4329 246.41 34.1901 246.685 33.8858C246.99 33.5958 247.231 33.2459 247.394 32.8582C247.557 32.4704 247.637 32.0532 247.631 31.6329C247.634 31.2084 247.553 30.7876 247.39 30.3953C247.228 30.003 246.988 29.6474 246.685 29.3495C246.413 29.0389 246.078 28.7899 245.701 28.6192C245.325 28.4486 244.917 28.3602 244.504 28.36C244.084 28.3633 243.67 28.4528 243.287 28.6231C242.903 28.7933 242.56 29.0406 242.276 29.3495C241.974 29.6474 241.734 30.003 241.571 30.3953C241.409 30.7876 241.327 31.2084 241.331 31.6329C241.324 32.0532 241.404 32.4704 241.567 32.8582C241.73 33.2459 241.972 33.5958 242.276 33.8858C242.562 34.1892 242.907 34.4308 243.29 34.5957C243.673 34.7607 244.086 34.8455 244.504 34.8449Z" fill="#1A1A1A"/>
<path d="M267.416 42.1975C265.992 42.2182 264.576 41.9809 263.237 41.4972C262.038 41.0969 260.979 40.3627 260.186 39.3813C259.405 38.3437 259.007 37.0697 259.057 35.7735C259.028 34.6151 259.43 33.4871 260.186 32.6071C261.008 31.6817 262.061 30.9887 263.237 30.5977C264.578 30.1228 265.993 29.8858 267.416 29.8974C268.245 29.8939 269.072 29.9653 269.887 30.1106C270.42 30.1822 270.937 30.3471 271.413 30.5977C271.407 30.2386 271.325 29.8846 271.173 29.5592C271.02 29.2339 270.801 28.9445 270.528 28.71C269.639 28.0886 268.558 27.8026 267.477 27.9032C266.934 27.8863 266.391 27.9375 265.86 28.0555C265.501 28.1639 265.149 28.2961 264.808 28.4513C264.474 28.6245 264.121 28.7574 263.755 28.847C263.257 28.9757 262.744 29.0321 262.23 29.0145C261.394 29.0564 260.572 28.7849 259.926 28.2534C259.622 27.9445 259.386 27.5742 259.236 27.1673C259.086 26.7604 259.025 26.3262 259.057 25.8938C259.035 24.9964 259.326 24.1191 259.881 23.4125C260.451 22.6812 261.174 22.0836 262.001 21.6619C262.887 21.1874 263.838 20.8438 264.823 20.642C265.779 20.4223 266.756 20.3099 267.736 20.3071C270.089 20.2087 272.426 20.7339 274.509 21.8294C276.151 22.7365 277.492 24.1013 278.368 25.7568C279.22 27.381 279.655 29.1908 279.634 31.0239C279.638 32.0041 279.551 32.9825 279.375 33.9467C279.263 34.6776 279.036 35.3864 278.704 36.0475C279.123 36.4129 279.465 36.8579 279.711 37.3566C279.938 37.8324 280.057 38.352 280.062 38.8789C280.068 39.7263 279.758 40.5458 279.192 41.1775C278.885 41.5188 278.505 41.7864 278.079 41.9604C277.654 42.1344 277.195 42.2102 276.736 42.1822C276.079 42.2159 275.423 42.0851 274.83 41.8017C274.324 41.5346 273.853 41.2074 273.426 40.8274C272.655 41.2787 271.823 41.617 270.955 41.8321C269.795 42.0976 268.606 42.2203 267.416 42.1975ZM268.347 37.4936C268.916 37.5354 269.481 37.3794 269.948 37.0522C270.113 36.9396 270.248 36.79 270.343 36.6154C270.439 36.4408 270.492 36.2462 270.497 36.0475C270.488 35.8494 270.434 35.6561 270.339 35.482C270.244 35.308 270.11 35.1578 269.948 35.0427C269.481 34.7155 268.916 34.5595 268.347 34.6013C267.804 34.5803 267.269 34.7351 266.821 35.0427C266.655 35.1545 266.517 35.3036 266.419 35.4781C266.321 35.6526 266.266 35.8476 266.257 36.0475C266.262 36.2481 266.316 36.4445 266.414 36.6196C266.513 36.7947 266.652 36.9432 266.821 37.0522C267.256 37.3504 267.773 37.5049 268.301 37.4936H268.347Z" fill="#1A1A1A"/>
<path d="M20.1656 15.4053C19.8639 15.4197 19.5638 15.354 19.2958 15.215C19.0279 15.0759 18.8017 14.8684 18.6402 14.6137C18.2149 13.8629 17.9694 13.0241 17.9232 12.1628C17.7927 10.7307 17.7368 9.29273 17.7555 7.85479C17.7555 6.5304 17.7555 5.38866 17.8623 4.39918C17.8899 3.59879 18.093 2.8142 18.4572 2.10057C18.6111 1.83679 18.8348 1.62048 19.104 1.47545C19.3731 1.33042 19.6771 1.26227 19.9826 1.27852C20.2106 1.25865 20.4401 1.28776 20.6559 1.36391C20.8716 1.44006 21.0686 1.5615 21.2334 1.72C21.5415 2.05484 21.7432 2.47332 21.813 2.92257C21.9271 3.45281 21.9835 3.99384 21.9808 4.53618C21.9808 5.11465 21.9808 5.70837 21.9808 6.28684L22.6367 6.01279C23.807 5.77865 25.0226 5.9963 26.0383 6.62174C26.7156 7.09409 27.2446 7.74868 27.5637 8.50936C27.9073 9.32314 28.0787 10.199 28.0671 11.082C28.0671 11.5691 28.0671 12.0563 28.0671 12.6043C28.041 13.0703 27.9538 13.5309 27.8078 13.9743C27.6996 14.3559 27.5007 14.7058 27.2282 14.9943C27.093 15.1295 26.9307 15.2346 26.7519 15.3029C26.5732 15.3711 26.382 15.4008 26.1909 15.39C25.7525 15.4267 25.3163 15.2962 24.9705 15.0247C24.6902 14.7281 24.5136 14.349 24.4672 13.9439C24.4018 13.4086 24.3713 12.8696 24.3757 12.3303C24.3945 11.7272 24.312 11.1251 24.1316 10.5492C24.0917 10.3424 23.9791 10.1567 23.8141 10.0255C23.6491 9.89431 23.4425 9.82631 23.2316 9.83373C23.0204 9.83156 22.8146 9.90123 22.6483 10.0313C22.4819 10.1613 22.3648 10.344 22.3164 10.5492C22.1317 11.1248 22.039 11.7259 22.0418 12.3303C22.0489 12.8752 22.0131 13.4198 21.935 13.9591C21.8886 14.3687 21.7122 14.7527 21.4316 15.0551C21.2601 15.204 21.0574 15.3127 20.8384 15.3732C20.6193 15.4338 20.3894 15.4448 20.1656 15.4053Z" fill="#1A1A1A"/>
<path d="M33.7574 15.4055C32.8375 15.4253 31.9266 15.2215 31.1032 14.8118C30.3542 14.4419 29.7274 13.865 29.2975 13.1499C28.8675 12.4347 28.6524 11.6114 28.6778 10.7778C28.6728 9.92859 28.894 9.09332 29.3185 8.35736C29.7506 7.59335 30.3843 6.96229 31.1509 6.53283C31.9174 6.10337 32.7873 5.89198 33.6658 5.9217C34.4736 5.89685 35.2736 6.08595 35.9845 6.46974C36.605 6.78436 37.1312 7.25698 37.5098 7.83979C37.8402 8.37049 38.0194 8.98095 38.0284 9.60564C38.0586 10.1194 37.9281 10.6297 37.6548 11.0661C37.3815 11.5025 36.979 11.8433 36.503 12.0413C36.0206 12.2636 35.5056 12.4074 34.9776 12.4675C34.4708 12.525 33.9591 12.525 33.4523 12.4675C33.0442 12.422 32.6409 12.3405 32.2472 12.224C32.4584 12.589 32.786 12.8731 33.1777 13.0308C33.5534 13.1679 33.9525 13.23 34.3523 13.2134C34.7256 13.1875 35.0973 13.1417 35.4658 13.0764C35.8009 12.9555 36.1679 12.9555 36.503 13.0764C36.6278 13.1314 36.7342 13.2208 36.8099 13.334C36.8855 13.4473 36.9273 13.5797 36.9302 13.7158C36.9344 13.9825 36.8424 14.2419 36.6709 14.4465C36.4127 14.7442 36.0736 14.961 35.6946 15.0706C35.0702 15.2818 34.4166 15.3948 33.7574 15.4055ZM32.3997 9.7883C32.5304 10.0124 32.7441 10.1764 32.9947 10.245C33.2434 10.3351 33.5097 10.3664 33.7726 10.3363C34.0099 10.3185 34.2398 10.2455 34.4438 10.1232C34.5316 10.0691 34.6033 9.99264 34.6516 9.90166C34.6999 9.81067 34.7229 9.70849 34.7184 9.60564C34.7169 9.49077 34.6918 9.37744 34.6445 9.27269C34.5973 9.16793 34.529 9.074 34.4438 8.99673C34.324 8.89625 34.1856 8.8203 34.0364 8.77328C33.8872 8.72626 33.7302 8.70907 33.5743 8.72269C33.2774 8.71025 32.9876 8.81517 32.7677 9.01467C32.5478 9.21416 32.4155 9.49215 32.3997 9.7883Z" fill="#1A1A1A"/>
<path d="M207.284 16.1818C207.284 15.857 207.284 15.5374 207.284 15.2227C207.136 12.3725 206.013 9.659 204.104 7.53441C202.194 5.40982 199.613 4.00244 196.789 3.54683C194.064 3.15881 191.287 3.69486 188.903 5.06912C187.668 5.79981 182.802 8.5095 184.51 10.4276C184.841 10.7237 185.231 10.9467 185.654 11.0821C190.939 13.2711 195.397 17.0697 198.391 21.936C198.757 22.5297 199.093 23.1234 199.413 23.7323C199.733 24.3412 200.023 25.1632 201.045 24.8131C202.788 24.0972 204.295 22.9098 205.397 21.3848C206.5 19.8597 207.153 18.0577 207.284 16.1818Z" fill="#1A1A1A"/>
<path d="M122.412 15.1314C122.412 14.7965 122.412 14.4616 122.518 14.1419C123.125 11.2362 124.711 8.62555 127.012 6.74482C129.313 4.86408 132.19 3.82678 135.164 3.80566C138.033 3.8532 140.801 4.8671 143.02 6.68275C144.179 7.62656 148.816 11.2496 146.681 12.8937C146.29 13.14 145.855 13.3057 145.399 13.3808C139.617 14.7815 134.43 17.98 130.588 22.5145C130.115 23.0473 129.672 23.6105 129.245 24.189C128.818 24.7674 128.391 25.559 127.4 25.0415C125.726 24.0172 124.372 22.5467 123.491 20.7957C122.609 19.0448 122.236 17.083 122.412 15.1314Z" fill="#1A1A1A"/>
<path d="M160.761 30.0801C160.318 27.9201 159.295 25.9208 157.802 24.2955C156.216 22.592 154.244 21.2923 152.051 20.505C150.022 19.684 147.822 19.3755 145.645 19.6069C143.684 19.8382 141.807 20.5322 140.169 21.6315C138.511 22.7118 137.064 24.0839 135.897 25.6807C134.69 27.3096 133.715 29.0975 132.999 30.9935C132.389 32.6274 131.84 34.3019 131.352 36.017C130.883 37.6092 130.592 39.2478 130.482 40.9036C130.353 42.2688 130.546 43.6452 131.047 44.9223C131.287 45.4839 131.644 45.9884 132.094 46.4029C132.543 46.8174 133.075 47.1325 133.655 47.3276C134.528 47.707 135.488 47.8387 136.431 47.7081C137.135 47.5803 137.777 47.2276 138.262 46.7034C138.734 46.1699 139.097 45.5493 139.33 44.8767C139.579 44.1744 139.762 43.4509 139.879 42.7151C140.963 43.7082 142.219 44.4973 143.585 45.0442C145.011 45.6265 146.53 45.9462 148.07 45.988C149.632 46.0189 151.186 45.7502 152.646 45.1964C154.237 44.5744 155.666 43.6012 156.826 42.3497C158.227 40.8297 159.297 39.0363 159.968 37.0826C160.912 34.8758 161.188 32.4415 160.761 30.0801ZM159.068 33.1247C158.241 36.0289 156.503 38.5923 154.109 40.4388C151.715 42.2852 148.791 43.3178 145.767 43.3849C144.631 43.3771 143.511 43.1163 142.489 42.6215C141.468 42.1267 140.569 41.4104 139.86 40.5248C139.151 39.6393 138.649 38.6069 138.391 37.5031C138.133 36.3993 138.126 35.2518 138.369 34.1446C138.899 31.4074 140.222 28.8854 142.174 26.8912C144.126 24.897 146.622 23.5181 149.351 22.9254C156.139 21.6315 160.792 26.5028 159.068 33.1856V33.1247ZM154.95 31.4806C154.091 31.4871 153.261 31.7961 152.608 32.3531C151.955 32.9101 151.52 33.6794 151.38 34.5252C151.371 35.4066 151.67 36.2636 152.228 36.9476C152.785 37.6316 153.564 38.0994 154.431 38.27C155.323 38.28 156.187 37.9606 156.857 37.3733C157.527 36.786 157.956 35.9723 158.061 35.0884C158.1 34.2111 157.798 33.3526 157.219 32.6919C156.639 32.0311 155.826 31.6191 154.95 31.5415V31.4806Z" fill="#1A1A1A"/>
<path d="M169.958 36.3826C170.68 38.3227 171.785 40.0983 173.207 41.604C174.396 42.8246 175.845 43.7613 177.448 44.3442C178.912 44.8748 180.467 45.1127 182.024 45.0444C183.564 44.9719 185.078 44.6212 186.493 44.0093C187.846 43.436 189.086 42.6267 190.154 41.6193C190.281 42.346 190.475 43.0594 190.734 43.7505C190.985 44.4198 191.363 45.0348 191.847 45.562C192.338 46.0806 192.987 46.423 193.693 46.5362C194.637 46.6441 195.592 46.4914 196.454 46.0948C197.034 45.8893 197.564 45.5632 198.008 45.1381C198.453 44.7129 198.802 44.1985 199.032 43.6287C199.499 42.3437 199.661 40.9679 199.505 39.6099C199.357 37.9557 199.029 36.3224 198.529 34.7385C198.01 33.0336 197.43 31.3743 196.79 29.7607C196.019 27.8738 194.993 26.1016 193.739 24.4936C192.531 22.932 191.06 21.5926 189.392 20.5357C187.732 19.4942 185.851 18.853 183.9 18.6633C181.717 18.4808 179.522 18.8363 177.509 19.6985C175.334 20.5283 173.392 21.8705 171.85 23.6107C170.325 25.3244 169.325 27.4386 168.968 29.7024C168.611 31.9661 168.912 34.2845 169.836 36.3826H169.958ZM180.376 22.1189C183.117 22.6573 185.639 23.9852 187.632 25.9385C189.624 27.8918 191 30.3849 191.588 33.1097C191.872 34.2127 191.902 35.3656 191.674 36.4816C191.447 37.5976 190.968 38.6474 190.275 39.5519C189.582 40.4564 188.692 41.192 187.672 41.703C186.652 42.2141 185.529 42.4874 184.388 42.5022C181.362 42.4981 178.416 41.5262 175.984 39.7289C173.551 37.9317 171.76 35.4037 170.873 32.516C169.012 25.8789 173.573 20.901 180.376 22.1189ZM174.9 37.5243C175.034 38.3953 175.485 39.1867 176.165 39.748C176.846 40.3094 177.709 40.6015 178.592 40.5689C179.467 40.3938 180.253 39.9162 180.811 39.2202C181.369 38.5242 181.664 37.6543 181.643 36.7632C181.484 35.9198 181.03 35.16 180.362 34.6192C179.695 34.0784 178.857 33.7916 177.997 33.81C177.549 33.8501 177.113 33.9781 176.715 34.1867C176.316 34.3953 175.963 34.6803 175.676 35.0254C175.388 35.3705 175.171 35.7689 175.038 36.1977C174.905 36.6265 174.858 37.0774 174.9 37.5243Z" fill="#1A1A1A"/>
<path d="M161.768 45.3794C164.395 44.5604 167.235 44.7671 169.715 45.9578L170.249 46.2318C170.594 46.3848 170.899 46.6135 171.143 46.9009C171.386 47.1883 171.562 47.527 171.656 47.8915C171.749 48.2561 171.76 48.6371 171.685 49.0061C171.611 49.375 171.453 49.7225 171.225 50.0223C170.592 51.266 169.786 52.4141 168.83 53.4322C167.939 54.3811 166.712 54.9454 165.41 55.0051C164.108 55.0648 162.834 54.6152 161.859 53.7519C160.874 52.8248 160.045 51.7453 159.404 50.5551C159.134 50.1134 158.969 49.6164 158.921 49.1017C158.873 48.587 158.942 48.068 159.125 47.5841C159.307 47.1001 159.597 46.6639 159.973 46.3083C160.349 45.9527 160.801 45.6871 161.295 45.5316L161.768 45.3794Z" fill="#1A1A1A"/>
</g>
<defs>
<clipPath id="clip0_616_5158">
<rect width="280" height="55" fill="white"/>
</clipPath>
</defs>
</svg>
