<svg width="86" height="52" viewBox="0 0 86 52" fill="none" xmlns="http://www.w3.org/2000/svg">
<path d="M85.284 12.758C85.284 12.4332 85.284 12.1135 85.284 11.7989C85.1359 8.94867 84.0134 6.23517 82.1038 4.11058C80.1941 1.986 77.6126 0.578611 74.7894 0.123006C72.064 -0.265017 69.287 0.271032 66.9032 1.64529C65.6676 2.37598 60.8016 5.08567 62.51 7.00374C62.841 7.29986 63.2308 7.52291 63.6541 7.65831C68.9392 9.84732 73.3967 13.6459 76.391 18.5122C76.7571 19.1059 77.0928 19.6995 77.4131 20.3085C77.7334 20.9174 78.0232 21.7394 79.0452 21.3893C80.7876 20.6734 82.2949 19.486 83.3972 17.9609C84.4996 16.4359 85.1531 14.6338 85.284 12.758Z" fill="#1A1A1A"/>
<path d="M0.411566 11.7076C0.411566 11.3727 0.411577 11.0378 0.518354 10.7181C1.12497 7.81235 2.71084 5.20173 5.01175 3.32099C7.31265 1.44025 10.1897 0.402954 13.1638 0.381836C16.0325 0.429376 18.801 1.44327 21.0196 3.25892C22.1788 4.20274 26.8161 7.82579 24.6805 9.46985C24.2904 9.71621 23.8546 9.88183 23.3992 9.95695C17.6166 11.3577 12.4298 14.5562 8.58762 19.0906C8.11475 19.6234 7.67247 20.1867 7.24536 20.7651C6.81825 21.3436 6.39111 22.1352 5.39961 21.6176C3.72581 20.5933 2.37193 19.1228 1.49062 17.3719C0.609314 15.6209 0.235592 13.6592 0.411566 11.7076Z" fill="#1A1A1A"/>
<path d="M38.7613 26.6563C38.3178 24.4963 37.295 22.497 35.802 20.8716C34.2157 19.1682 32.2439 17.8685 30.0513 17.0812C28.0223 16.2602 25.8218 15.9517 23.6447 16.183C21.6842 16.4144 19.8069 17.1084 18.1685 18.2076C16.5107 19.288 15.0635 20.66 13.8975 22.2569C12.6902 23.8858 11.7148 25.6737 10.9992 27.5697C10.3891 29.2036 9.83989 30.8781 9.35177 32.5932C8.88348 34.1854 8.59199 35.824 8.48238 37.4797C8.35302 38.8449 8.54632 40.2214 9.04677 41.4985C9.28741 42.0601 9.64412 42.5646 10.0936 42.9791C10.5431 43.3936 11.0752 43.7087 11.6551 43.9038C12.5278 44.2832 13.4885 44.4149 14.4313 44.2843C15.1345 44.1564 15.777 43.8038 16.2618 43.2796C16.7338 42.7461 17.0966 42.1255 17.3296 41.4529C17.5785 40.7506 17.7623 40.027 17.8787 39.2912C18.9634 40.2844 20.2192 41.0734 21.5854 41.6203C23.0109 42.2026 24.5303 42.5224 26.07 42.5641C27.6321 42.5951 29.1857 42.3264 30.6462 41.7726C32.2368 41.1506 33.6657 40.1774 34.8257 38.9259C36.2269 37.4059 37.2968 35.6124 37.968 33.6588C38.912 31.452 39.1878 29.0177 38.7613 26.6563ZM37.0681 29.7008C36.2408 32.6051 34.5027 35.1684 32.1089 37.0149C29.7151 38.8614 26.7915 39.8939 23.7667 39.961C22.6309 39.9533 21.5113 39.6925 20.4894 39.1977C19.4675 38.7029 18.5693 37.9865 17.8603 37.101C17.1513 36.2155 16.6494 35.1831 16.3913 34.0793C16.1332 32.9754 16.1255 31.828 16.3686 30.7208C16.8987 27.9835 18.2218 25.4616 20.174 23.4674C22.1262 21.4732 24.6217 20.0943 27.3514 19.5016C34.1394 18.2077 38.7918 23.0789 37.0681 29.7618V29.7008ZM32.9496 28.0568C32.0905 28.0633 31.2613 28.3722 30.6083 28.9293C29.9553 29.4863 29.5203 30.2555 29.3801 31.1014C29.3705 31.9828 29.6704 32.8398 30.2276 33.5238C30.7848 34.2078 31.5643 34.6756 32.4309 34.8462C33.3227 34.8561 34.1868 34.5368 34.8569 33.9495C35.5271 33.3622 35.956 32.5484 36.0613 31.6646C36.1001 30.7873 35.7982 29.9288 35.2185 29.2681C34.6389 28.6073 33.8261 28.1953 32.9496 28.1177V28.0568Z" fill="#1A1A1A"/>
<path d="M47.9581 32.9588C48.6798 34.8989 49.7846 36.6744 51.2071 38.1802C52.3957 39.4008 53.8454 40.3375 55.4477 40.9204C56.9123 41.4509 58.4672 41.6888 60.0239 41.6206C61.5641 41.548 63.0784 41.1973 64.4932 40.5854C65.8461 40.0122 67.0858 39.2028 68.1542 38.1955C68.2812 38.9222 68.4752 39.6356 68.7338 40.3266C68.9855 40.996 69.3634 41.611 69.8474 42.1382C70.3384 42.6567 70.9872 42.9991 71.6931 43.1124C72.6366 43.2203 73.5916 43.0676 74.454 42.671C75.0342 42.4655 75.564 42.1394 76.0084 41.7142C76.4528 41.2891 76.8017 40.7747 77.032 40.2049C77.4992 38.9199 77.6611 37.5441 77.5048 36.186C77.3566 34.5319 77.0292 32.8986 76.5285 31.3147C76.0099 29.6098 75.4303 27.9505 74.7896 26.3369C74.0192 24.45 72.9927 22.6777 71.7388 21.0698C70.5314 19.5082 69.0602 18.1688 67.3915 17.1119C65.7317 16.0703 63.8514 15.4292 61.9001 15.2394C59.7168 15.057 57.5221 15.4125 55.5087 16.2746C53.3339 17.1045 51.3924 18.4467 49.8496 20.1868C48.3251 21.9006 47.325 24.0148 46.9681 26.2785C46.6113 28.5423 46.9125 30.8607 47.836 32.9588H47.9581ZM58.3764 18.695C61.1169 19.2334 63.6392 20.5613 65.6318 22.5146C67.6243 24.4679 68.9998 26.9611 69.5881 29.6859C69.8723 30.7888 69.9018 31.9418 69.6744 33.0578C69.4469 34.1737 68.9684 35.2236 68.275 36.1281C67.5817 37.0326 66.6916 37.7681 65.6718 38.2792C64.652 38.7903 63.5292 39.0635 62.3882 39.0784C59.3617 39.0743 56.4162 38.1024 53.9839 36.3051C51.5515 34.5078 49.7604 31.9799 48.8733 29.0922C47.0123 22.4551 51.5732 17.4772 58.3764 18.695ZM52.9003 34.1005C53.0344 34.9715 53.4845 35.7628 54.1651 36.3242C54.8457 36.8855 55.7094 37.1777 56.5917 37.1451C57.4675 36.9699 58.2534 36.4924 58.8113 35.7964C59.3692 35.1004 59.6635 34.2304 59.6425 33.3394C59.4837 32.496 59.0301 31.7362 58.3624 31.1954C57.6948 30.6545 56.8565 30.3678 55.9968 30.3861C55.5488 30.4263 55.1131 30.5543 54.7148 30.7629C54.3165 30.9714 53.9633 31.2564 53.6756 31.6015C53.3879 31.9466 53.1714 32.345 53.0383 32.7739C52.9053 33.2027 52.8584 33.6536 52.9003 34.1005Z" fill="#1A1A1A"/>
<path d="M39.7679 41.9555C42.3948 41.1365 45.2353 41.3433 47.7152 42.534L48.2491 42.808C48.5937 42.9609 48.8993 43.1897 49.1429 43.4771C49.3864 43.7645 49.5617 44.1031 49.6556 44.4677C49.7495 44.8323 49.7595 45.2132 49.685 45.5822C49.6105 45.9512 49.4534 46.2986 49.2254 46.5985C48.5923 47.8422 47.786 48.9902 46.8305 50.0084C45.9391 50.9573 44.712 51.5216 43.4101 51.5813C42.1082 51.641 40.8343 51.1914 39.8595 50.3281C38.8742 49.4009 38.045 48.3215 37.4036 47.1313C37.1345 46.6896 36.9695 46.1926 36.9212 45.6778C36.8728 45.1631 36.9424 44.6442 37.1246 44.1602C37.3068 43.6763 37.5969 43.24 37.9729 42.8845C38.349 42.5289 38.8011 42.2633 39.2951 42.1078L39.7679 41.9555Z" fill="#1A1A1A"/>
</svg>
